<svg width="150" height="150" fill="none" xmlns="http://www.w3.org/2000/svg"><g clip-path="url(#clip0_528_162)" filter="url(#filter0_d_528_162)"><path d="M13.325 85.187a62.137 62.137 0 010-20.375c6.888.163 13.075-3.137 15.481-8.944 2.407-5.812.363-12.525-4.625-17.268a62.138 62.138 0 0114.413-14.42c4.75 4.988 11.462 7.031 17.275 4.625 5.812-2.406 9.106-8.6 8.937-15.481a62.136 62.136 0 0120.388 0c-.169 6.887 3.131 13.075 8.937 15.481 5.813 2.406 12.525.363 17.269-4.625a62.139 62.139 0 0114.419 14.412c-4.988 4.75-7.031 11.463-4.625 17.275 2.406 5.813 8.6 9.107 15.481 8.938a62.109 62.109 0 010 20.388c-6.887-.17-13.075 3.13-15.481 8.937-2.406 5.813-.363 12.525 4.625 17.269a62.133 62.133 0 01-14.413 14.419c-4.75-4.988-11.462-7.032-17.275-4.625-5.812 2.406-9.106 8.6-8.937 15.481a62.163 62.163 0 01-20.388 0c.17-6.888-3.13-13.075-8.937-15.481-5.813-2.407-12.525-.363-17.269 4.625a62.151 62.151 0 01-14.419-14.413c4.988-4.75 7.032-11.463 4.625-17.275-2.406-5.813-8.6-9.106-15.48-8.938v-.006zM75 93.75a18.75 18.75 0 100-37.5 18.75 18.75 0 000 37.5z" fill="#000"/></g><defs><clipPath id="clip0_528_162"><path fill="#fff" d="M0 0h150v150H0z"/></clipPath><filter id="filter0_d_528_162" x="-4" y="0" width="158" height="158" filterUnits="userSpaceOnUse" color-interpolation-filters="sRGB"><feFlood flood-opacity="0" result="BackgroundImageFix"/><feColorMatrix in="SourceAlpha" values="0 0 0 0 0 0 0 0 0 0 0 0 0 0 0 0 0 0 127 0" result="hardAlpha"/><feOffset dy="4"/><feGaussianBlur stdDeviation="2"/><feComposite in2="hardAlpha" operator="out"/><feColorMatrix values="0 0 0 0 0 0 0 0 0 0 0 0 0 0 0 0 0 0 0.25 0"/><feBlend in2="BackgroundImageFix" result="effect1_dropShadow_528_162"/><feBlend in="SourceGraphic" in2="effect1_dropShadow_528_162" result="shape"/></filter></defs></svg>